PathFileType	4	(X/Y/Z)	C:\Users\chris\Documents\GitHub\baseballds\vids\pitch5_Sports2D\pitch5_Sports2D_px_person04.trc
DataRate	CameraRate	NumFrames	NumMarkers	Units	OrigDataRate	OrigDataStartFrame	OrigNumFrames
30	30	9	22	m	30	37	149
Frame#	Time	Hip			RHip			RKnee			RAnkle			RBigToe			RSmallToe			RHeel			LHip			LKnee			LAnkle			LBigToe			LSmallToe			LHeel			Neck			Head			Nose			RShoulder			RElbow			RWrist			LShoulder			LElbow			LWrist		
		X1	Y1	Z1	X2	Y2	Z2	X3	Y3	Z3	X4	Y4	Z4	X5	Y5	Z5	X6	Y6	Z6	X7	Y7	Z7	X8	Y8	Z8	X9	Y9	Z9	X10	Y10	Z10	X11	Y11	Z11	X12	Y12	Z12	X13	Y13	Z13	X14	Y14	Z14	X15	Y15	Z15	X16	Y16	Z16	X17	Y17	Z17	X18	Y18	Z18	X19	Y19	Z19	X20	Y20	Z20	X21	Y21	Z21	X22	Y22	Z22
37	1.2333333333333334	1253.1970757415277	449.7569614234133	0.0	1249.7027812059841	450.18776403011617	0.0	1248.6807327510835	461.19395313501656	0.0	1247.2887654814842	471.89733589589605	0.0	1247.1338946129888	473.94790232663775	0.0	1245.1278540093708	473.54812617591017	0.0	1248.0079431968952	472.8874744357465	0.0	1256.7133477717182	450.4794102597595	0.0	1256.633771997112	461.4321537891834	0.0	1258.6397321588006	472.4285800863886	0.0	1257.010188788665	474.46416457163394	0.0	1260.2440432563644	473.7561234573509	0.0	1258.859840454361	473.2940986175138	0.0	1257.1033489762385	432.7390536552957	0.0	1259.9820504876627	424.32517833372947	0.0	1258.5372766399805	429.56893202055267	0.0	1251.2085511410355	433.2366818783661	0.0	1247.4440161685518	437.6668681491502	0.0	1243.236355774501	434.61031205979936	0.0	1260.5463499100001	434.78653081201236	0.0	1258.0740728308365	436.7061493424333	0.0	1246.219035453144	432.1706275462167	0.0
38	1.2666666666666666	1253.8342909933594	450.37927801723265	0.0	1250.3384390262775	450.6643614048519	0.0	1249.2212433508566	461.7121265475566	0.0	1247.7447817687635	472.41631848222744	0.0	1247.1179876753217	474.5245296625887	0.0	1245.395313501407	473.99353121859286	0.0	1248.681470697154	473.33219348955413	0.0	1257.3758456567068	450.96562326844946	0.0	1257.27664416881	461.9431896073279	0.0	1259.251392222544	472.9064956335781	0.0	1257.6622464804107	475.12990241963917	0.0	1260.484670923118	474.50450478432805	0.0	1259.5289959529255	473.9810458430941	0.0	1257.7590748361229	433.09624042707685	0.0	1260.364126959514	424.7392041803812	0.0	1258.8856716069986	429.80694081185436	0.0	1252.0367012615147	433.6316236619476	0.0	1247.9087187886296	437.0561322151133	0.0	1243.6897312539195	434.60387423587105	0.0	1261.1229633801586	435.06814757059817	0.0	1257.079531863758	435.55513413512875	0.0	1246.5256784877506	432.9750566255001	0.0
39	1.3	1254.500790257717	450.8552230712079	0.0	1251.1118329326853	451.0864485566666	0.0	1249.8202683006234	462.23189300792035	0.0	1248.3464372556616	472.82702953746957	0.0	1247.9714227708123	475.007675345301	0.0	1246.0624118826672	474.4428476859225	0.0	1249.4288923178651	473.83757282501165	0.0	1257.9794351075113	451.37506346644295	0.0	1257.884086418937	462.5144106915109	0.0	1259.888711227006	473.48185074085177	0.0	1257.9795375232184	475.7607604280275	0.0	1260.4891185172835	475.1924604415323	0.0	1260.3291559118625	474.5754004330898	0.0	1258.3619448225127	433.5063684014674	0.0	1260.6138344461424	425.13719436866705	0.0	1259.104469426562	430.11893404556696	0.0	1253.011395307326	434.1916636061372	0.0	1248.6861990329335	436.79182066634786	0.0	1244.0117598251509	434.8833546830965	0.0	1261.651720400816	435.517766683046	0.0	1256.2916582271278	435.62275290941716	0.0	1246.993221278461	433.67936440180614	0.0
40	1.3333333333333333	1255.177027958708	451.3195559676671	0.0	1251.9253166741094	451.5723121962588	0.0	1250.446182342808	462.75605478086135	0.0	1249.009633429415	473.2297498328718	0.0	1248.6724046105983	475.42216150548484	0.0	1246.7039471552673	474.85666378689166	0.0	1250.1195578983816	474.3284602918868	0.0	1258.553157427513	451.86287390185225	0.0	1258.4625965729092	463.17204984392924	0.0	1260.4350799076035	474.1379947142113	0.0	1258.3504012728474	476.21350289782856	0.0	1260.6533619933134	475.7419388999215	0.0	1260.97445742833	475.1126214513105	0.0	1258.9310088000154	434.0607490433454	0.0	1260.9702392149438	425.58049826692917	0.0	1259.444843468108	430.6207072698888	0.0	1254.0254894476425	434.88699632245294	0.0	1249.5645961843352	437.1737791698597	0.0	1244.3819952200101	435.425314912855	0.0	1262.091004027261	436.0883768513891	0.0	1255.8958664639388	436.43034611312703	0.0	1247.4345150729662	434.39315163093147	0.0
41	1.3666666666666667	1255.8187487823088	451.8513053632349	0.0	1252.6656378937305	452.15192109206214	0.0	1251.0326517325493	463.28393784841506	0.0	1249.6020243306543	473.7441345238927	0.0	1248.201731446935	475.88553315290295	0.0	1246.783515729618	475.29133370844056	0.0	1250.732787904516	474.83326294715323	0.0	1259.065739718774	452.4910795532709	0.0	1258.998425516993	463.8831281386323	0.0	1260.8380554399782	474.8303925782787	0.0	1259.0248461299334	476.5485347839892	0.0	1261.2670900469748	476.1916445302587	0.0	1261.272982304596	475.67697294594024	0.0	1259.4475847175609	434.6582067219814	0.0	1261.3637282786906	426.0834079048935	0.0	1259.793559179267	431.24354874057684	0.0	1254.9214747539522	435.6012376148441	0.0	1250.0980557281646	438.13463255432214	0.0	1244.873823799043	436.2547792687501	0.0	1262.4197103090728	436.5796081988735	0.0	1256.1878432491212	437.3647735549071	0.0	1247.5711212469564	435.2922048606877	0.0
42	1.4	1256.420316812174	452.3941984444165	0.0	1253.320304928397	452.73346034744594	0.0	1251.5769858355989	463.7891536045067	0.0	1250.049626095744	474.37513085353294	0.0	1247.295472635441	476.4519755062672	0.0	1246.5344572140866	475.8817115020485	0.0	1251.1361318187082	475.43252286843267	0.0	1259.5471365393064	453.14581861854504	0.0	1259.485976182301	464.56266144425535	0.0	1261.1306510453328	475.4867593543771	0.0	1259.5696598424893	476.9452540990305	0.0	1262.1141705394793	476.5998955938155	0.0	1261.3734661711096	476.23014840678485	0.0	1259.8953327181348	435.2365631258116	0.0	1261.7441055918368	426.7011318620373	0.0	1260.1222498239185	431.9339844515473	0.0	1255.613511129969	436.27135188847467	0.0	1250.32817814743	439.36991943773614	0.0	1245.4847385675644	437.2663334582986	0.0	1262.7108145367738	436.9549482638486	0.0	1257.4561955556173	438.3735222905095	0.0	1247.5437597582031	436.426832181535	0.0
43	1.4333333333333333	1256.8857386763848	452.79849689933076	0.0	1253.8130396999977	453.14097399330143	0.0	1252.0010985774006	464.1612239970351	0.0	1250.2999860783962	474.92878103855736	0.0	1246.971644082373	476.95537474828205	0.0	1246.4132838514065	476.5078299646341	0.0	1251.2270819451792	475.9879878484197	0.0	1259.9499616876383	453.60106936259103	0.0	1259.8489563879534	465.0492436374907	0.0	1261.3157894823335	475.9523271503395	0.0	1259.6274360077987	477.3729367157629	0.0	1262.785778075772	476.906904256527	0.0	1261.4538290870769	476.6107444736151	0.0	1260.201392241065	435.7036362503451	0.0	1262.032158485053	427.3053534157253	0.0	1260.4203784841225	432.54323086107433	0.0	1256.037218042872	436.78309095406365	0.0	1250.5021106653055	440.4016759200971	0.0	1246.0473886904488	438.1374121009731	0.0	1262.9505898125929	437.21044073604514	0.0	1259.2086607959375	439.34317252210275	0.0	1247.5897341002237	437.5002813866172	0.0
44	1.4666666666666666	1257.1000777007464	452.9752070435496	0.0	1254.0364706501757	453.29543382733567	0.0	1252.1937163198681	464.3229181793604	0.0	1250.3629389469852	475.2091448596567	0.0	1247.1174426479715	477.20584603902967	0.0	1246.446049256457	476.87889294898594	0.0	1251.1463304897275	476.28084971489955	0.0	1260.1553098686327	453.7649771924446	0.0	1260.0097769322344	465.25360670778116	0.0	1261.383718187886	476.1434824544363	0.0	1259.4504280856895	477.63729377967104	0.0	1263.089022305218	477.04519820346263	0.0	1261.5139787443372	476.7548282516445	0.0	1260.319953998656	435.940985658738	0.0	1262.155494371399	427.6507242037599	0.0	1260.596760347062	432.8714300680376	0.0	1256.1905584542908	437.0245570236591	0.0	1250.623463938712	440.8911434386146	0.0	1246.350142010574	438.57172047362195	0.0	1263.06622544503	437.3218707189198	0.0	1260.3929902527732	439.9148643998777	0.0	1247.6840155287155	438.0940793820733	0.0
45	1.5	1257.1172860828265	452.9874271472581	0.0	1254.0523565240203	453.292153160077	0.0	1252.2054887571758	464.3333767483902	0.0	1250.3415375550949	475.2452503843766	0.0	1247.259468400136	477.2337353553858	0.0	1246.487082152961	476.94709349681665	0.0	1251.0831613057005	476.3209861423029	0.0	1260.1807880420452	453.75573600508585	0.0	1260.0200598583515	465.2638075402673	0.0	1261.381021322234	476.1505211264161	0.0	1259.349727160463	477.6916231598351	0.0	1263.1170748679608	477.0571447116221	0.0	1261.5288962314698	476.7544062778278	0.0	1260.3191126163172	435.9736386304168	0.0	1262.1595025186089	427.7113959945349	0.0	1260.6319113739582	432.92363518459234	0.0	1256.1870137839771	437.0497555339727	0.0	1250.6516684891942	440.93826228033	0.0	1246.396545501117	438.6239182174352	0.0	1263.076681443675	437.3293843246688	0.0	1260.6671704492724	440.0244717610814	0.0	1247.7279392848075	438.1920281168165	0.0
